<svg xmlns:dc="http://purl.org/dc/elements/1.1/" xmlns:cc="http://creativecommons.org/ns#" xmlns:rdf="http://www.w3.org/1999/02/22-rdf-syntax-ns#" xmlns:svg="http://www.w3.org/2000/svg" xmlns="http://www.w3.org/2000/svg" xmlns:sodipodi="http://sodipodi.sourceforge.net/DTD/sodipodi-0.dtd" xmlns:inkscape="http://www.inkscape.org/namespaces/inkscape" id="svg2" version="1.1" inkscape:version="0.48.4 r9939" width="180.1" height="220" xml:space="preserve"><metadata id="metadata8"><rdf:RDF><cc:Work rdf:about=""><dc:format>image/svg+xml</dc:format><dc:type rdf:resource="http://purl.org/dc/dcmitype/StillImage"/><dc:title/></cc:Work></rdf:RDF></metadata><defs id="defs6"><clipPath clipPathUnits="userSpaceOnUse" id="clipPath16"><path d="m 0 841.9 595.3 0 L 595.3 0 0 0 0 841.9 z" id="path18" inkscape:connector-curvature="0"/></clipPath></defs><g id="g10" inkscape:groupmode="layer" inkscape:label="vorlage_gi" transform="matrix(1.25,0,0,-1.25,-122.58747,508.26787)"><path inkscape:connector-curvature="0" id="path142" d="m 174.6 273.8 c -22.9 -0 -44.8 13.1 -54.9 35 -6.8 14.7 -7.4 31.1 -1.8 46.3 5.6 15.2 16.8 27.3 31.5 34.1 0 0 0.7 0.3 2.9 1.3 0.2 0.1 0.4 0.1 0.6 -0 0.2 -0.1 0.3 -0.3 0.4 -0.4 l 1.2 -5 c 0.1 -0.3 -0.1 -0.6 -0.4 -0.8 -0 -0 -0.1 -0 -0.1 -0.1 l -0.1 -0 c -0.1 -0 -0.1 -0.1 -0.2 -0.1 -0.3 -0.1 -0.9 -0.4 -1.8 -0.8 -0.9 -0.4 -1.7 -0.8 -2.5 -1.2 -25.8 -13.5 -36.5 -44.7 -24.3 -71 12.1 -26.2 42.8 -38.3 69.7 -27.6 0.3 0.1 0.7 -0 0.9 -0.4 0.1 -0.3 -0 -0.7 -0.4 -0.9 -27.6 -11.1 -59 1.3 -71.5 28.2 -12.5 27 -1.5 59 24.9 72.8 0.8 0.4 1.6 0.8 2.5 1.3 0.8 0.4 1.4 0.6 1.8 0.8 l -0.9 3.6 c -1.6 -0.7 -2.2 -1 -2.2 -1 -14.4 -6.7 -25.4 -18.5 -30.9 -33.3 -5.5 -14.8 -4.9 -30.9 1.8 -45.2 13.2 -28.5 46.4 -41.7 75.7 -30 0.3 0.1 0.7 -0 0.9 -0.4 0.1 -0.3 -0 -0.7 -0.4 -0.9 -7.4 -2.9 -15 -4.3 -22.5 -4.3" class="globus"/><path inkscape:connector-curvature="0" id="path130" d="m 143.7 310.4 c -5.3 0 -10.5 0.6 -15.3 1.7 -0.4 0.1 -0.6 0.5 -0.5 0.8 0.1 0.4 0.4 0.6 0.8 0.5 16.2 -3.8 36.1 -1 54.6 7.7 18.2 8.5 31.9 21.6 36.7 35 0.1 0.4 0.5 0.5 0.9 0.4 0.4 -0.1 0.5 -0.5 0.4 -0.9 -2.5 -7.1 -7.3 -13.9 -14.1 -20.3 -6.4 -6 -14.4 -11.3 -23.3 -15.5 -13.3 -6.2 -27.3 -9.5 -40.1 -9.5" class="globus"/><path inkscape:connector-curvature="0" id="path162" d="m 191.3 345.3 c 0 -1.8 -1.4 -3.2 -3.2 -3.2 -1.8 0 -3.2 1.4 -3.2 3.2 0 1.8 1.4 3.2 3.2 3.2 1.8 0 3.2 -1.4 3.2 -3.2" class="globus"/><path inkscape:connector-curvature="0" id="path134" d="m 164.1 339.2 c 0 -1.8 -1.4 -3.2 -3.2 -3.2 -1.8 0 -3.2 1.4 -3.2 3.2 0 1.8 1.4 3.2 3.2 3.2 1.8 0 3.2 -1.4 3.2 -3.2" class="globus"/><path inkscape:connector-curvature="0" id="path82" d="m 176.3 246.6 c -23.2 0.1 -29 3.9 -30.3 5 -0.1 0.1 -0.2 0.3 -0.2 0.5 l 0 2.5 c 0 0.4 0.3 0.7 0.7 0.7 l 0 0 c 0.4 -0 0.7 -0.3 0.7 -0.7 l -0 -2.1 c 1.4 -1.1 7.3 -4.4 29.1 -4.5 l 0 0 c 22 0.1 27.9 3.4 29.2 4.4 l 0 2.2 c 0 0.4 0.3 0.7 0.7 0.7 l 0 0 c 0.4 -0 0.7 -0.3 0.7 -0.7 l -0 -2.5 c -0 -0.2 -0.1 -0.4 -0.2 -0.5 -1.2 -1.2 -7 -4.9 -30.3 -5 l -0 0 z" class="globus"/><path inkscape:connector-curvature="0" id="path86" d="m 173.2 271.3 c 0.7 -0.2 2.1 -0.4 3.1 -0.4 1 -0 2.2 0.2 2.8 0.4 l 0 0.1 c 0 0 -0 0 -0 0 l -0.3 0.2 c -0.8 -0.3 -1.9 -0.4 -2.6 -0.4 -0 -0 -0.1 0 -0.1 0 -0 -0 -0.1 -0 -0.1 -0 -0.6 0 -1.7 0.1 -2.6 0.4 l -0.3 -0.2 c -0 -0 -0 -0 -0 -0 l 0 -0.1 z m 3.2 -1.8 c -0 0 -0.1 0 -0.1 0 -1.3 0 -3.5 0.4 -4.1 0.7 -0.2 0.1 -0.4 0.3 -0.4 0.6 l 0 0.6 c 0 0.6 0.3 0.9 0.4 1 l 0.7 0.5 c 0.2 0.2 0.5 0.2 0.7 0.1 0.5 -0.2 1.4 -0.4 2.5 -0.4 0 -0 0 -0 0 -0 0 0 0 0 0 0 1 0 1.9 0.2 2.5 0.4 0.2 0.1 0.5 0.1 0.7 -0.1 l 0.7 -0.5 c 0.1 -0.1 0.4 -0.4 0.4 -1 l 0 -0.6 c 0 -0.3 -0.1 -0.5 -0.4 -0.6 l -0.1 -0 c -0 -0 -0 -0 -0 -0 -0.6 -0.3 -2.2 -0.6 -3.6 -0.6" class="globus"/><path inkscape:connector-curvature="0" id="path90" d="m 164.9 259.7 c -0.1 0 -0.2 0 -0.2 0 -0.2 0.1 -0.4 0.2 -0.6 0.3 l -0.1 0 c -0.2 0.1 -0.4 0.4 -0.4 0.7 -0 0.5 0.4 1.3 1 1.5 1 0.4 2.8 0.8 3.6 1 0.6 1.8 2.2 5.6 3.7 8 0.2 0.3 0.6 0.4 0.9 0.2 0.3 -0.2 0.4 -0.6 0.2 -0.9 -1.6 -2.5 -3.3 -6.7 -3.7 -8 -0.1 -0.2 -0.3 -0.4 -0.5 -0.5 -0 -0 -2.5 -0.5 -3.7 -1 0.3 -0.2 0.4 -0.5 0.3 -0.8 -0.1 -0.3 -0.4 -0.5 -0.6 -0.5" class="globus"/><path inkscape:connector-curvature="0" id="path94" d="m 166.2 259.3 c -0.1 0 -0.1 0 -0.2 0 -0.1 0 -0.2 0.1 -0.4 0.1 -0.3 0.1 -0.5 0.5 -0.4 0.9 0.1 0.3 0.5 0.5 0.9 0.4 0.1 -0 0.1 -0 0.2 -0.1 0.4 -0.1 0.6 -0.5 0.5 -0.8 -0.1 -0.3 -0.4 -0.5 -0.7 -0.5" class="globus"/><path inkscape:connector-curvature="0" id="path98" d="m 167.5 258.9 0.1 0.7 -0.1 -0.7 c -0.3 0.1 -0.6 0.1 -0.8 0.2 -0.4 0.1 -0.6 0.5 -0.5 0.8 0.1 0.4 0.5 0.6 0.8 0.5 0.2 -0.1 0.5 -0.1 0.7 -0.2 l -0.3 -1.3 z" class="globus"/><path inkscape:connector-curvature="0" id="path102" d="m 175.3 258.1 -0 0 c -2.8 0.1 -5.3 0.3 -7.4 0.7 -0.4 0.1 -0.6 0.4 -0.5 0.8 0.1 0.4 0.4 0.6 0.8 0.5 2 -0.4 4.4 -0.6 7.1 -0.7 0.4 -0 0.7 -0.3 0.7 -0.7 -0 -0.4 -0.3 -0.7 -0.7 -0.7" class="globus"/><path inkscape:connector-curvature="0" id="path106" d="m 176.6 258.1 c -0.3 0 -0.7 0 -1.1 0 -0.4 0 -0.7 0.3 -0.7 0.7 0 0.4 0.3 0.7 0.7 0.7 0.9 -0 1.8 -0 2.5 0 0.4 0 0.7 -0.3 0.7 -0.7 0 -0.4 -0.3 -0.7 -0.7 -0.7 -0.5 -0 -1 -0 -1.5 -0" class="globus"/><path inkscape:connector-curvature="0" id="path110" d="m 179 258.2 c -0.4 0 -0.7 0.3 -0.7 0.6 -0 0.4 0.3 0.7 0.6 0.7 1.7 0.1 3.2 0.2 4.6 0.4 0.4 0.1 0.7 -0.2 0.8 -0.6 0.1 -0.4 -0.2 -0.7 -0.6 -0.8 -1.4 -0.2 -3 -0.4 -4.7 -0.4 -0 -0 -0 -0 -0 -0" class="globus"/><path inkscape:connector-curvature="0" id="path114" d="m 184.6 258.8 c -0.3 0 -0.6 0.2 -0.7 0.5 -0.1 0.4 0.2 0.7 0.5 0.8 1.2 0.2 2.1 0.5 2.8 0.8 -1.2 0.5 -3.7 1 -3.7 1 -0.2 0.1 -0.4 0.2 -0.5 0.5 -0.4 1.3 -2.1 5.6 -3.7 8 -0.2 0.3 -0.1 0.7 0.2 0.9 0.3 0.2 0.7 0.1 0.9 -0.2 1.5 -2.3 3.1 -6.2 3.7 -8 0.8 -0.2 2.6 -0.6 3.6 -1 0.5 -0.2 1 -0.9 1 -1.4 0 -0.3 -0.1 -0.6 -0.4 -0.7 -0.8 -0.5 -2.1 -0.9 -3.7 -1.2 -0 -0 -0.1 -0 -0.1 -0" class="globus"/><path inkscape:connector-curvature="0" id="path118" d="m 147.3 254.7 c 1.2 -1 7 -4.4 29.1 -4.5 0 0 0.1 -0 0.1 -0 22 0.1 27.7 3.5 28.9 4.5 -2.4 1.9 -13.6 4.6 -17 5.3 -0.5 -0.3 -1.5 -0.7 -3.7 -1.1 -0.3 -0.1 -0.6 -0.1 -1 -0.2 -1.6 -0.2 -3.1 -0.4 -4.7 -0.4 -0.3 -0 -0.6 -0 -0.9 -0 -0.6 -0 -1.1 -0 -1.7 -0.1 -0.1 -0 -0.1 0 -0.2 0 -0.2 0 -0.4 0 -0.7 0 l -0.2 0 c -3 0.1 -5.4 0.3 -7.4 0.7 -0.2 0 -0.3 0.1 -0.4 0.1 -0.2 0.1 -0.4 0.1 -0.6 0.1 l -0.2 0 c -0.2 0 -0.4 0.1 -0.6 0.1 l -0.1 0 c -0.1 0 -0.2 0.1 -0.3 0.1 -0.4 0.1 -0.8 0.3 -1 0.4 -0.2 0.1 -0.3 0.2 -0.4 0.2 -3.7 -0.8 -14.6 -3.5 -16.9 -5.3 m 29 -5.8 c -0 0 -0.1 0 -0.1 0 -23.2 0.1 -28.8 3.8 -30 5 -0.2 0.2 -0.3 0.4 -0.4 0.7 -0.1 0.5 0.3 0.9 0.6 1.2 2.9 2.3 16 5.3 17.8 5.7 0.3 0.1 0.5 0 0.6 -0.2 0 -0 0.1 -0.1 0.4 -0.2 0.2 -0.1 0.4 -0.2 0.9 -0.3 0 -0 0.1 -0 0.1 -0 0.1 -0 0.1 -0 0.2 -0.1 l 0.1 -0 c 0.2 -0 0.3 -0.1 0.4 -0.1 0 -0 0 -0 0 -0 l 0.2 -0.1 c 0.2 -0 0.4 -0.1 0.6 -0.1 0.1 -0 0.2 -0 0.4 -0.1 1.9 -0.4 4.3 -0.6 7.1 -0.7 l 0.2 0 c 0 0 0 -0 0 -0 l 0 -0 c 0.2 -0 0.5 -0 0.7 -0 0 0 0.1 -0 0.1 -0 0.5 0 1.1 0 1.6 0.1 0.3 0 0.6 0 0.9 0 1.6 0.1 3.1 0.2 4.6 0.4 0.3 0.1 0.6 0.1 0.9 0.2 2.6 0.5 3.3 1 3.3 1 0.2 0.2 0.4 0.2 0.6 0.2 2.3 -0.4 15.1 -3.4 17.9 -5.6 0.1 -0.1 0.6 -0.5 0.6 -1 0 -0.3 -0.1 -0.6 -0.3 -0.8 -1.2 -1.2 -6.9 -4.9 -30.2 -5 l -0 0 z" class="globus"/><path inkscape:connector-curvature="0" id="path122" d="m 174.7 384.3 c -6.5 0 -12.9 -1.3 -18.9 -3.7 -0.7 -0.3 -1.5 -0.6 -2.1 -0.9 -0.9 -0.4 -1.8 -0.8 -2.6 -1.3 -23.5 -12.5 -33.2 -41.1 -22.1 -65.1 0 -0 0 -0.1 0.1 -0.1 0 -0 0 -0.1 0 -0.1 8.2 -17.5 26 -28.8 45.4 -28.8 6.4 0 12.7 1.2 18.7 3.6 0.7 0.3 1.6 0.7 2.4 1 0.9 0.4 1.6 0.8 2.4 1.2 23.6 12.4 33.4 41.1 22.3 65.2 -0 0 -0 0.1 -0.1 0.1 -0 0.1 -0.1 0.1 -0.1 0.2 -8.2 17.4 -26 28.7 -45.3 28.7 m -0.3 -101.4 c -9.7 0 -19.1 2.7 -27.3 7.8 -8.4 5.2 -15.1 12.8 -19.3 21.8 -0 0 -0 0.1 -0.1 0.1 -0 0 -0 0.1 -0 0.1 -11.4 24.7 -1.4 54.1 22.7 66.9 0.8 0.5 1.7 0.9 2.7 1.3 0.7 0.3 1.4 0.7 2.2 0.9 6.2 2.5 12.8 3.8 19.4 3.8 9.6 0 19.1 -2.7 27.3 -7.8 8.4 -5.2 15.1 -12.7 19.3 -21.7 0 -0.1 0 -0.1 0.1 -0.1 0 -0.1 0.1 -0.1 0.1 -0.2 11.4 -24.8 1.4 -54.2 -22.9 -67 -0.8 -0.4 -1.6 -0.8 -2.5 -1.2 -0.8 -0.4 -1.7 -0.8 -2.5 -1.1 -6.2 -2.5 -12.6 -3.7 -19.2 -3.7" class="globus"/><path inkscape:connector-curvature="0" id="path126" d="m 197 278 c -0.3 0 -0.5 0.2 -0.6 0.4 l -0.1 0.2 -3.5 8.2 c -0.1 0.3 0 0.7 0.4 0.9 0.3 0.1 0.7 -0 0.9 -0.4 l 3.4 -7.9 c 1.7 0.3 2.5 0.6 3.7 1.7 l -3.4 7.9 c -0.1 0.3 0 0.7 0.4 0.9 0.3 0.1 0.7 -0 0.9 -0.4 l 3.6 -8.3 c 0.1 -0.3 0 -0.6 -0.2 -0.8 -1.7 -1.5 -2.9 -2 -5.3 -2.4 -0 -0 -0.1 -0 -0.1 -0" class="globus"/><path inkscape:connector-curvature="0" id="path146" d="m 179 271.8 c -0.4 0 -0.7 0.3 -0.7 0.7 l 0 2 c 0 0.4 0.3 0.7 0.7 0.7 0.4 0 0.7 -0.3 0.7 -0.7 l 0 -2 c 0 -0.4 -0.3 -0.7 -0.7 -0.7" class="globus"/><path inkscape:connector-curvature="0" id="path150" d="m 173.5 271.8 c -0.4 0 -0.7 0.3 -0.7 0.7 0 0.8 -0 1.9 -0 1.9 l 1.4 0 c 0 0 0 -1.1 0 -1.9 0 -0.4 -0.3 -0.7 -0.7 -0.7" class="globus"/><path inkscape:connector-curvature="0" id="path154" d="m 150.7 378.3 c -0.3 0 -0.5 0.2 -0.6 0.4 l -1.6 3.7 c -0.1 0.3 -0.1 0.6 0.1 0.8 0.3 0.3 0.7 0.3 1 -0 l 0.1 -0.1 0.1 -0.1 1.6 -3.7 c 0.1 -0.3 -0 -0.7 -0.3 -0.9 -0.1 -0 -0.2 -0.1 -0.3 -0.1" class="globus"/><path inkscape:connector-curvature="0" id="path158" d="m 155.5 380.6 c -0.3 0 -0.5 0.1 -0.6 0.4 l -1.7 3.7 c -0.2 0.3 -0 0.7 0.3 0.9 0.3 0.2 0.7 0 0.9 -0.3 l 1.7 -3.7 c 0.2 -0.3 0 -0.7 -0.3 -0.9 -0.1 -0 -0.2 -0.1 -0.3 -0.1" class="globus"/></g></svg>